inDegrees=no
num_controls=7
num_derivatives=13
num_iterations=86
num_multipliers=7
num_parameters=0
num_slacks=7
num_states=26
objective=0.339342
objective_accelerations=0.028543
objective_balance=0.000979
objective_effort=0.021822
objective_height=0.286251
objective_ligament=0.001747
solver_duration=887.807200
status=Solve_Succeeded
success=true
DataType=double
version=3
OpenSimVersion=4.5
endheader
time	/jointset/ground_pelvis/pelvis_tilt/value	/jointset/ground_pelvis/pelvis_tx/value	/jointset/ground_pelvis/pelvis_ty/value	/jointset/hip_r/hip_flexion_r/value	/jointset/hip_r/hip_adduction_r/value	/jointset/hip_r/hip_rotation_r/value	/jointset/back/lumbar_extension/value	/jointset/patellofemoral_r/patellar_flexion_r/value	/jointset/knee_r/knee_flexion_r/value	/jointset/knee_r/knee_adduction_r/value	/jointset/knee_r/knee_rotation_r/value	/jointset/ankle_r/ankle_angle_r/value	/jointset/subtalar_r/subtalar_angle_r/value	/jointset/ground_pelvis/pelvis_tilt/speed	/jointset/ground_pelvis/pelvis_tx/speed	/jointset/ground_pelvis/pelvis_ty/speed	/jointset/hip_r/hip_flexion_r/speed	/jointset/hip_r/hip_adduction_r/speed	/jointset/hip_r/hip_rotation_r/speed	/jointset/back/lumbar_extension/speed	/jointset/patellofemoral_r/patellar_flexion_r/speed	/jointset/knee_r/knee_flexion_r/speed	/jointset/knee_r/knee_adduction_r/speed	/jointset/knee_r/knee_rotation_r/speed	/jointset/ankle_r/ankle_angle_r/speed	/jointset/subtalar_r/subtalar_angle_r/speed	/forceset/tau_hip_flexion_r	/forceset/tau_hip_adduction_r	/forceset/tau_hip_rotation_r	/forceset/tau_knee_flexion_r	/forceset/tau_ankle_angle_r	/forceset/tau_subtalar_angle_r	/forceset/tau_lumbar_extension	lambda_cid13_p0	lambda_cid14_p0	lambda_cid14_p1	lambda_cid14_p2	lambda_cid14_p3	lambda_cid14_p4	lambda_cid14_p5	/jointset/ground_pelvis/pelvis_tilt/accel	/jointset/ground_pelvis/pelvis_tx/accel	/jointset/ground_pelvis/pelvis_ty/accel	/jointset/hip_r/hip_flexion_r/accel	/jointset/hip_r/hip_adduction_r/accel	/jointset/hip_r/hip_rotation_r/accel	/jointset/back/lumbar_extension/accel	/jointset/patellofemoral_r/patellar_flexion_r/accel	/jointset/knee_r/knee_flexion_r/accel	/jointset/knee_r/knee_adduction_r/accel	/jointset/knee_r/knee_rotation_r/accel	/jointset/ankle_r/ankle_angle_r/accel	/jointset/subtalar_r/subtalar_angle_r/accel	gamma_cid13_p0	gamma_cid14_p0	gamma_cid14_p1	gamma_cid14_p2	gamma_cid14_p3	gamma_cid14_p4	gamma_cid14_p5
1	-0.1596489034621647	0.02665504326542602	0.7185507447117704	1.127967237540846	-0.2465046078040236	-0.03481101605152611	-0.785360299132871	1.303198920143946	1.303198920143943	-0.04264485945437704	0.1745280762166416	0.4362385383305499	0.1590218360806472	0.07183551892639539	0.009024309682122559	0.01498225661507762	-0.1077279633979109	-0.001520606011223316	-0.005458971375398146	0.005803479266742738	-0.01990492211703227	-0.01990492211703277	0.002506769083656928	-6.291986620314445e-05	0.01576324083967842	0.004940567459564089	-0.2846189405480251	0.04660047434946145	0.02421373441679981	-0.3927352370365849	-0.07528687191159578	-0.003470530863387346	0.3274811845893646	-0.04315019255538576	-74.25171872991062	-16.56743344497587	5.415387366849481	9.114584299368607	-743.9381828326184	55.21297161013741	1.049975971471981	0.1527672687739097	1.324393943558271	-4.1628808828059	0.1204746051953932	-0.7645413788061236	0.4030969034336961	-4.209014924832593	-4.209014924832573	0.447079249168619	-0.006667446217581891	-1.288646456262561	-0.3809494036549027	6.633227552180751e-10	-1.805670584655036e-09	2.816481638720094e-09	3.371617944992499e-09	3.431574334860504e-09	-6.326637287786319e-09	1.947714972017566e-09
1.01	-0.1588790768123399	0.02675315208522705	0.7187666564905477	1.126682738586361	-0.2465138470180306	-0.03490312129842432	-0.7852792871264298	1.302789673789975	1.302789673789974	-0.04259674571730096	0.1745269337299079	0.4363320451488025	0.1590522114191194	0.08209148989004654	0.01062303280937571	0.02820062118039771	-0.1491718196219767	-0.0003311199403992901	-0.01296406467450512	0.01060748412566494	-0.06195254748057563	-0.06195254748057639	0.0071219543074755	-0.0001633209830474961	0.00296838952031641	0.001141802896276786	-0.2856113634716861	0.04674184027021269	0.02421707576989294	-0.3925371051524678	-0.07582639397889711	-0.003421392106040648	0.3287755021118087	-0.04313999982437774	-74.46383919421478	-16.57446941804163	5.406498703106082	8.901984133095366	-744.7951384208538	55.21612351634286	1.007660084519162	0.1672628322403784	1.320633865748314	-4.135136489412276	0.1176055626967657	-0.7437908882507797	0.5503365925169101	-4.203866533054057	-4.203866533054099	0.4696354488830446	-0.01138489853907791	-1.27036535274873	-0.3782413277085613	1.840405421097808e-09	-2.68005654823991e-09	1.082200229380671e-08	1.210025873881015e-08	6.062256824012509e-09	-1.072188366677892e-08	1.227122183797937e-08
1.02	-0.1580078399677374	0.02686801573580848	0.7191147671455249	1.1249838013702	-0.2465113073803946	-0.03507033699486987	-0.7851439782083145	1.301959705144181	1.30195970514418	-0.04250230067001275	0.174524855541188	0.4362985112773254	0.15904481884295	0.09211755788199606	0.01237527583820107	0.04142203185487459	-0.1906156157342512	0.0008351643172567974	-0.02048106128512515	0.01666286160039731	-0.104049380481669	-0.1040493804816699	0.01177303112707511	-0.0002500602647394252	-0.009644897118073505	-0.002613015468727085	-0.286603786395321	0.04688320619097086	0.02422041712302361	-0.3923389732683461	-0.07636591604619969	-0.00337225334868216	0.3300698196342764	-0.04313441895587233	-74.68496880347377	-16.57897637269049	5.392516284007481	8.691714088234578	-745.8072414572764	55.24255896016733	1.003995377131627	0.183471249088378	1.32500316538963	-4.162868860447643	0.115834242561796	-0.7669220411087403	0.6533714265956747	-4.21885645234258	-4.218856452342542	0.4542575683248296	-0.003935079187083625	-1.252333520068094	-0.3721601639982107	2.918232700359019e-09	-1.101927295790793e-09	2.048441871725145e-08	1.949558082128791e-08	3.609697519531634e-09	-1.294543620146397e-08	2.584763027883347e-08
1.03	-0.1570376021972541	0.02700102573925451	0.7195950467266956	1.122870797453347	-0.246497203351608	-0.03531271210367627	-0.7849424139845674	1.300708470522671	1.300708470522673	-0.04236109268220076	0.1745219883028214	0.4361394214882263	0.1589999793159107	0.1018788213152992	0.01423801288145886	0.0546281256653962	-0.2319460158463515	0.001983626975029242	-0.02799029262697569	0.02380562014217812	-0.1462108758404751	-0.1462108758404746	0.01648035314608672	-0.0003198814531728448	-0.02217593231938141	-0.006359229501294522	-0.2868998201328529	0.04698878095240151	0.02422401050958544	-0.3918676439025385	-0.07694842688036117	-0.003322427708501355	0.330644632537097	-0.04314190404347481	-74.8871641457492	-16.57484238201592	5.371413786919949	8.713735721113519	-746.1842795277605	55.23893459353474	0.9545164861508654	0.1893683424946171	1.31754563907746	-4.112252210980864	0.1140547293932802	-0.7423722662663527	0.768073616802501	-4.216796686165798	-4.216796686165607	0.4807394410892153	-0.007972358387211977	-1.253920386872206	-0.3764948976118114	3.995047169552693e-09	5.012276221280728e-10	3.016374224037332e-08	2.68772976107928e-08	1.105268400829986e-09	-1.514682859488057e-08	3.945723159290077e-08
1.04	-0.1559712868604927	0.02715300179524312	0.7202072138760112	1.120345664210503	-0.246471674205841	-0.03563006924300907	-0.7846647530656332	1.29903522082587	1.299035220825871	-0.04217245748972195	0.1745185295086319	0.4358549349737679	0.1589175490736004	0.111333071137449	0.0161684863467162	0.06779954548365905	-0.2730414809340322	0.003120187713131739	-0.03547746739055292	0.03188220063728129	-0.1884523955399244	-0.1884523955399227	0.02125847206109212	-0.0003683714302347104	-0.03472424218909119	-0.01013115852289381	-0.2871958538703439	0.04709435571383912	0.02422760389617802	-0.3913963145367252	-0.07753093771452528	-0.003272602068309227	0.3312194454399547	-0.04315383384187112	-75.09842427246134	-16.56818676870172	5.345216035159233	8.736413725359233	-746.7183062449161	55.25891305580191	0.942592654900932	0.1970185334883261	1.318068366937878	-4.115881855563699	0.1134538586277915	-0.7625107254540892	0.8401358172601046	-4.234861320471202	-4.234861320471214	0.4684169475235937	0.0003311630872514103	-1.255788453748405	-0.3773031618045774	5.155067377996314e-09	1.013554236942276e-09	3.776731544896054e-08	3.648922270667091e-08	1.041369898748411e-09	-1.782940232425994e-08	4.928946080369089e-08
1.05	-0.1548114507487784	0.02732465376074349	0.7209509231375123	1.117410231538024	-0.2464348474694691	-0.03602212757612812	-0.7843022814485571	1.296939246168034	1.296939246168036	-0.04193565126360439	0.1745146659887688	0.4354449807059773	0.1587973141705657	0.120633124964002	0.01817648748589536	0.08093657637334352	-0.3140567785854442	0.004242733613686142	-0.04292667060791235	0.04070711216771719	-0.2307472830696266	-0.2307472830696257	0.0261155321560586	-0.0004036429128260026	-0.04725935520000531	-0.01391498657559862	-0.2871825840278842	0.04713966489104315	0.02423563073103739	-0.3906693675569743	-0.0779264630191269	-0.003232021087673282	0.3315009380740602	-0.04316224690521527	-75.2202438042641	-16.54716446387246	5.313619522313382	8.705802801472617	-746.8216718612443	55.25374472593655	0.9235592150554165	0.2048782249807241	1.310656750828547	-4.096111453863903	0.1112989925596383	-0.7349933367271168	0.9179172292981005	-4.227515800798651	-4.227515800798768	0.4962671197268368	-0.005340620924957089	-1.251285946385158	-0.378784501192297	6.317687765791495e-09	1.491792467284465e-09	4.530602146021856e-08	4.617084181212316e-08	1.053737978436199e-09	-2.052701297038814e-08	5.900364713625361e-08
1.06	-0.1535586446050938	0.02751682320180522	0.7218258299680801	1.114064294342246	-0.2463868664667326	-0.03648845158479114	-0.783848711034503	1.294420179968585	1.294420179968587	-0.0416498911206916	0.1745104728906838	0.4349098926637519	0.1586392686121661	0.1299270775314699	0.02027198145898692	0.09403905929679289	-0.3551423855942112	0.005351040985853968	-0.05033060249928265	0.05010196003265793	-0.2730707038624823	-0.2730707038624822	0.03104925542076995	-0.0004342870751217619	-0.05975099707580875	-0.01769328959585791	-0.2871693141854117	0.0471849740682505	0.02424365756592473	-0.3899424205772208	-0.07832198832372922	-0.003191440107032001	0.3317824307081775	-0.04317483326267825	-75.35121200857699	-16.52361488105202	5.27690361445256	8.674810678679147	-747.083848365941	55.2728221174065	0.9413724030838794	0.2145171002708409	1.311158773690856	-4.129943727034731	0.1106061529504603	-0.7534564602562778	0.9541230841610365	-4.240567973101858	-4.240567973101872	0.4837495814725728	0.001256627146387409	-1.247094226726215	-0.3761981553154765	7.462610191235595e-09	2.832250386081222e-09	5.415838261375298e-08	5.656114898491176e-08	-4.866102301738879e-10	-2.16542910319902e-08	7.068039142760286e-08
